<svg xmlns="http://www.w3.org/2000/svg" viewBox="0 0 64 64"><path d="M58.56 38.62c0 .36-.17.7-.47.96-.33.29-.78.44-1.27.44H7.18c-.96 0-1.74-.63-1.74-1.4 0-.35.17-.69.47-.96.33-.29.78-.45 1.27-.45H56.82c.96 0 1.74.64 1.74 1.41zM55.05 35.71H8.94c.04-3.64.96-7.2 2.69-10.36 2.82-5.16 8.58-8.89 15.81-10.23 8.02-1.48 16.16.29 21.26 4.62 4.15 3.53 6.45 9.32 6.35 15.97zM34 12.34c-.28.32-.7.56-1.19.68-.26.07-.52.1-.8.09-.72-.02-1.39-.29-1.85-.73-.65-.62-.87-1.58-.53-2.35.31-.71 1.14-1.24 2.05-1.24.56-.06 2.41-.14 2.75 1.29.21.89.05 1.73-.43 2.26zM41.09 50.37c0 .5-.07.96-.21 1.29-.03.08-.06.14-.08.17H23.2c-.11-.17-.29-.66-.29-1.46 0-.48.07-.95.2-1.28.04-.08.07-.14.09-.17h6.39c.41 0 .75-.34.75-.75v-6.65h3.32v6.65c0 .41.33.75.75.75h6.39c.11.17.29.66.29 1.45z"/></svg>