<svg width="22" height="21" viewBox="0 0 22 21" fill="none" xmlns="http://www.w3.org/2000/svg">
<path d="M11 21C10.8943 20.9982 10.7907 20.9675 10.6991 20.9107C10.5849 20.8548 8.01132 19.2802 5.39623 16.7563C1.81604 13.2831 1.60789e-06 9.8323 1.60789e-06 6.482C-0.000939598 5.09584 0.411356 3.74592 1.17628 2.63067C1.94121 1.51541 3.01842 0.693652 4.24957 0.286179C5.48071 -0.121294 6.80086 -0.0929851 8.01594 0.366945C9.23103 0.826875 10.277 1.69416 11 2.84133C11.723 1.69416 12.769 0.826875 13.9841 0.366945C15.1991 -0.0929851 16.5193 -0.121294 17.7504 0.286179C18.9816 0.693652 20.0588 1.51541 20.8237 2.63067C21.5886 3.74592 22.0009 5.09584 22 6.482C22 9.8323 20.184 13.2831 16.6038 16.7563C13.9887 19.2802 11.4151 20.8548 11.3009 20.9107C11.2093 20.9675 11.1057 20.9982 11 21V21ZM6.01887 1.34486C4.75284 1.34486 3.53866 1.88609 2.64343 2.84949C1.74821 3.81289 1.24528 5.11954 1.24528 6.482C1.24528 12.8811 9.31887 18.4649 11 19.5482C12.6811 18.4649 20.7547 12.8811 20.7547 6.482C20.7571 5.29249 20.3759 4.13894 19.6761 3.21822C18.9762 2.2975 18.0012 1.66667 16.9173 1.43339C15.8335 1.20011 14.708 1.37883 13.7329 1.93906C12.7578 2.49929 11.9936 3.40631 11.5708 4.50531C11.5261 4.62914 11.4477 4.73554 11.3458 4.81056C11.244 4.88559 11.1234 4.92573 11 4.92573C10.8766 4.92573 10.756 4.88559 10.6542 4.81056C10.5523 4.73554 10.4739 4.62914 10.4292 4.50531C10.0664 3.56861 9.45386 2.76856 8.66894 2.20609C7.88402 1.64362 6.96188 1.34394 6.01887 1.34486V1.34486Z" fill="black"/>
</svg>
